<svg xmlns="http://www.w3.org/2000/svg" xmlns:xlink="http://www.w3.org/1999/xlink" xmlns:s="https://github.com/nturley/netlistsvg" width="391" height="291.5">
  <style>svg {
    stroke:#000;
    fill:none;
  }
  text {
    fill:#000;
    stroke:none;
    font-size:10px;
    font-weight: bold;
    font-family: "Courier New", monospace;
  }
  .nodelabel {
    text-anchor: middle;
  }
  .inputPortLabel {
    text-anchor: end;
  }
  .splitjoinBody {
    fill:#000;
  }</style>
  <g s:type="lt" transform="translate(205,27)" s:width="25" s:height="25" id="cell_$1">
    <s:alias val="$lt"/>
    <circle r="12.5" cx="12.5" cy="12.5" class="cell_$1"/>
    <line x1="7.5" x2="17.5" y1="12.5" y2="7.5" class="cell_$1"/>
    <line x1="7.5" x2="17.5" y1="12.5" y2="17.5" class="cell_$1"/>
    <g s:x="3" s:y="5" s:pid="A"/>
    <g s:x="3" s:y="20" s:pid="B"/>
    <g s:x="25" s:y="12.5" s:pid="Y"/>
  </g>
  <g s:type="lt" transform="translate(205,254.5)" s:width="25" s:height="25" id="cell_$10">
    <s:alias val="$lt"/>
    <circle r="12.5" cx="12.5" cy="12.5" class="cell_$10"/>
    <line x1="7.5" x2="17.5" y1="12.5" y2="7.5" class="cell_$10"/>
    <line x1="7.5" x2="17.5" y1="12.5" y2="17.5" class="cell_$10"/>
    <g s:x="3" s:y="5" s:pid="A"/>
    <g s:x="3" s:y="20" s:pid="B"/>
    <g s:x="25" s:y="12.5" s:pid="Y"/>
  </g>
  <g s:type="lt" transform="translate(205,87)" s:width="25" s:height="25" id="cell_$4">
    <s:alias val="$lt"/>
    <circle r="12.5" cx="12.5" cy="12.5" class="cell_$4"/>
    <line x1="7.5" x2="17.5" y1="12.5" y2="7.5" class="cell_$4"/>
    <line x1="7.5" x2="17.5" y1="12.5" y2="17.5" class="cell_$4"/>
    <g s:x="3" s:y="5" s:pid="A"/>
    <g s:x="3" s:y="20" s:pid="B"/>
    <g s:x="25" s:y="12.5" s:pid="Y"/>
  </g>
  <g s:type="generic" transform="translate(132,96.5)" s:width="30" s:height="40" id="cell_$6">
    <text x="15" y="-4" class="nodelabel cell_$6" s:attribute="ref">$shl</text>
    <rect width="30" height="40" s:generic="body" class="cell_$6"/>
    <g transform="translate(0,10)" s:x="0" s:y="10" s:pid="in0" id="port_$6~A">
      <text x="-3" y="-4" class="inputPortLabel cell_$6">A</text>
    </g>
    <g transform="translate(0,30)" s:x="0" s:y="10" s:pid="in0" id="port_$6~B">
      <text x="-3" y="-4" class="inputPortLabel cell_$6">B</text>
    </g>
    <g transform="translate(30,10)" s:x="30" s:y="10" s:pid="out0" id="port_$6~Y">
      <text x="5" y="-4" style="fill:#000; stroke:none" class="cell_$6">Y</text>
    </g>
  </g>
  <g s:type="lt" transform="translate(205,189.5)" s:width="25" s:height="25" id="cell_$7">
    <s:alias val="$lt"/>
    <circle r="12.5" cx="12.5" cy="12.5" class="cell_$7"/>
    <line x1="7.5" x2="17.5" y1="12.5" y2="7.5" class="cell_$7"/>
    <line x1="7.5" x2="17.5" y1="12.5" y2="17.5" class="cell_$7"/>
    <g s:x="3" s:y="5" s:pid="A"/>
    <g s:x="3" s:y="20" s:pid="B"/>
    <g s:x="25" s:y="12.5" s:pid="Y"/>
  </g>
  <g s:type="inputExt" transform="translate(12,22)" s:width="30" s:height="20" id="cell_clk">
    <text x="15" y="-4" class="nodelabel cell_clk" s:attribute="ref">clk</text>
    <s:alias val="$_inputExt_"/>
    <path d="M0,0 L0,20 L15,20 L30,10 L15,0 Z" class="cell_clk"/>
    <g s:x="28" s:y="10" s:pid="Y"/>
  </g>
  <g s:type="inputExt" transform="translate(54,117)" s:width="30" s:height="20" id="cell_binary">
    <text x="15" y="-4" class="nodelabel cell_binary" s:attribute="ref">binary</text>
    <s:alias val="$_inputExt_"/>
    <path d="M0,0 L0,20 L15,20 L30,10 L15,0 Z" class="cell_binary"/>
    <g s:x="28" s:y="10" s:pid="Y"/>
  </g>
  <g s:type="outputExt" transform="translate(313,79.5)" s:width="30" s:height="20" id="cell_thermometer">
    <text x="15" y="-4" class="nodelabel cell_thermometer" s:attribute="ref">thermometer</text>
    <s:alias val="$_outputExt_"/>
    <path d="M30,0 L30,20 L15,20 L0,10 L15,0 Z" class="cell_thermometer"/>
    <g s:x="0" s:y="10" s:pid="A"/>
  </g>
  <g s:type="constant" transform="translate(132,22)" s:width="30" s:height="20" id="cell_00000000000000000000000000000000">
    <text x="15" y="-4" class="nodelabel cell_00000000000000000000000000000000" s:attribute="ref">0x0</text>
    <s:alias val="$_constant_"/>
    <rect width="30" height="20" class="cell_00000000000000000000000000000000"/>
    <g s:x="30" s:y="10" s:pid="Y"/>
  </g>
  <g s:type="constant" transform="translate(132,249.5)" s:width="30" s:height="20" id="cell_00000000000000000000000000000011">
    <text x="15" y="-4" class="nodelabel cell_00000000000000000000000000000011" s:attribute="ref">0x3</text>
    <s:alias val="$_constant_"/>
    <rect width="30" height="20" class="cell_00000000000000000000000000000011"/>
    <g s:x="30" s:y="10" s:pid="Y"/>
  </g>
  <g s:type="constant" transform="translate(54,52)" s:width="30" s:height="20" id="cell_00000000000000000000000000000001">
    <text x="15" y="-4" class="nodelabel cell_00000000000000000000000000000001" s:attribute="ref">0x1</text>
    <s:alias val="$_constant_"/>
    <rect width="30" height="20" class="cell_00000000000000000000000000000001"/>
    <g s:x="30" s:y="10" s:pid="Y"/>
  </g>
  <g s:type="constant" transform="translate(132,184.5)" s:width="30" s:height="20" id="cell_00000000000000000000000000000010">
    <text x="15" y="-4" class="nodelabel cell_00000000000000000000000000000010" s:attribute="ref">0x2</text>
    <s:alias val="$_constant_"/>
    <rect width="30" height="20" class="cell_00000000000000000000000000000010"/>
    <g s:x="30" s:y="10" s:pid="Y"/>
  </g>
  <g s:type="join" transform="translate(272,69)" s:width="4" s:height="40" id="cell_$join$,6,7,8,9,">
    <rect width="5" height="80" class="splitjoinBody" s:generic="body"/>
    <s:alias val="$_join_"/>
    <g s:x="5" s:y="20" s:pid="out"/>
    <g transform="translate(0,10)" s:x="0" s:y="10" s:pid="in0">
      <text x="-3" y="-4" class="inputPortLabel">0</text>
    </g>
    <g transform="translate(0,30)" s:x="0" s:y="10" s:pid="in0">
      <text x="-3" y="-4" class="inputPortLabel">1</text>
    </g>
    <g transform="translate(0,50)" s:x="0" s:y="10" s:pid="in0">
      <text x="-3" y="-4" class="inputPortLabel">2</text>
    </g>
    <g transform="translate(0,70)" s:x="0" s:y="10" s:pid="in0">
      <text x="-3" y="-4" class="inputPortLabel">3</text>
    </g>
  </g>
  <line x1="162" x2="208" y1="32" y2="32" class="net_42,43,44,45,46,47,48,49,50,51,52,53,54,55,56,57,58,59,60,61,62,63,64,65,66,67,68,69,70,71,72,73"/>
  <line x1="163" x2="180" y1="107" y2="107" class="net_10,11,12,13,14,15,16,17,18,19,20,21,22,23,24,25,26,27,28,29,30,31,32,33,34,35,36,37,38,39,40,41"/>
  <line x1="180" x2="180" y1="107" y2="47" class="net_10,11,12,13,14,15,16,17,18,19,20,21,22,23,24,25,26,27,28,29,30,31,32,33,34,35,36,37,38,39,40,41"/>
  <circle cx="180" cy="107" r="2" style="fill:#000" class="net_10,11,12,13,14,15,16,17,18,19,20,21,22,23,24,25,26,27,28,29,30,31,32,33,34,35,36,37,38,39,40,41"/>
  <line x1="180" x2="208" y1="47" y2="47" class="net_10,11,12,13,14,15,16,17,18,19,20,21,22,23,24,25,26,27,28,29,30,31,32,33,34,35,36,37,38,39,40,41"/>
  <line x1="163" x2="180" y1="107" y2="107" class="net_10,11,12,13,14,15,16,17,18,19,20,21,22,23,24,25,26,27,28,29,30,31,32,33,34,35,36,37,38,39,40,41"/>
  <line x1="180" x2="180" y1="107" y2="274.5" class="net_10,11,12,13,14,15,16,17,18,19,20,21,22,23,24,25,26,27,28,29,30,31,32,33,34,35,36,37,38,39,40,41"/>
  <line x1="180" x2="208" y1="274.5" y2="274.5" class="net_10,11,12,13,14,15,16,17,18,19,20,21,22,23,24,25,26,27,28,29,30,31,32,33,34,35,36,37,38,39,40,41"/>
  <line x1="163" x2="208" y1="107" y2="107" class="net_10,11,12,13,14,15,16,17,18,19,20,21,22,23,24,25,26,27,28,29,30,31,32,33,34,35,36,37,38,39,40,41"/>
  <line x1="163" x2="180" y1="107" y2="107" class="net_10,11,12,13,14,15,16,17,18,19,20,21,22,23,24,25,26,27,28,29,30,31,32,33,34,35,36,37,38,39,40,41"/>
  <line x1="180" x2="180" y1="107" y2="209.5" class="net_10,11,12,13,14,15,16,17,18,19,20,21,22,23,24,25,26,27,28,29,30,31,32,33,34,35,36,37,38,39,40,41"/>
  <circle cx="180" cy="209.5" r="2" style="fill:#000" class="net_10,11,12,13,14,15,16,17,18,19,20,21,22,23,24,25,26,27,28,29,30,31,32,33,34,35,36,37,38,39,40,41"/>
  <line x1="180" x2="208" y1="209.5" y2="209.5" class="net_10,11,12,13,14,15,16,17,18,19,20,21,22,23,24,25,26,27,28,29,30,31,32,33,34,35,36,37,38,39,40,41"/>
  <line x1="162" x2="208" y1="259.5" y2="259.5" class="net_74,75,76,77,78,79,80,81,82,83,84,85,86,87,88,89,90,91,92,93,94,95,96,97,98,99,100,101,102,103,104,105"/>
  <line x1="84" x2="190" y1="62" y2="62" class="net_106,107,108,109,110,111,112,113,114,115,116,117,118,119,120,121,122,123,124,125,126,127,128,129,130,131,132,133,134,135,136,137"/>
  <line x1="190" x2="190" y1="62" y2="92" class="net_106,107,108,109,110,111,112,113,114,115,116,117,118,119,120,121,122,123,124,125,126,127,128,129,130,131,132,133,134,135,136,137"/>
  <line x1="190" x2="208" y1="92" y2="92" class="net_106,107,108,109,110,111,112,113,114,115,116,117,118,119,120,121,122,123,124,125,126,127,128,129,130,131,132,133,134,135,136,137"/>
  <line x1="84" x2="100" y1="62" y2="62" class="net_106,107,108,109,110,111,112,113,114,115,116,117,118,119,120,121,122,123,124,125,126,127,128,129,130,131,132,133,134,135,136,137"/>
  <line x1="100" x2="100" y1="62" y2="107" class="net_106,107,108,109,110,111,112,113,114,115,116,117,118,119,120,121,122,123,124,125,126,127,128,129,130,131,132,133,134,135,136,137"/>
  <circle cx="100" cy="62" r="2" style="fill:#000" class="net_106,107,108,109,110,111,112,113,114,115,116,117,118,119,120,121,122,123,124,125,126,127,128,129,130,131,132,133,134,135,136,137"/>
  <line x1="100" x2="132" y1="107" y2="107" class="net_106,107,108,109,110,111,112,113,114,115,116,117,118,119,120,121,122,123,124,125,126,127,128,129,130,131,132,133,134,135,136,137"/>
  <line x1="82" x2="132" y1="127" y2="127" class="net_3,4,5"/>
  <line x1="162" x2="208" y1="194.5" y2="194.5" class="net_170,171,172,173,174,175,176,177,178,179,180,181,182,183,184,185,186,187,188,189,190,191,192,193,194,195,196,197,198,199,200,201"/>
  <line x1="278" x2="313" y1="89.5" y2="89.5" class="net_6,7,8,9"/>
  <line x1="230" x2="240" y1="39.5" y2="39.5" class="net_6"/>
  <line x1="240" x2="240" y1="39.5" y2="79.5" class="net_6"/>
  <line x1="240" x2="272" y1="79.5" y2="79.5" class="net_6"/>
  <line x1="230" x2="272" y1="99.5" y2="99.5" class="net_7"/>
  <line x1="230" x2="240" y1="202" y2="202" class="net_8"/>
  <line x1="240" x2="240" y1="202" y2="119.5" class="net_8"/>
  <line x1="240" x2="272" y1="119.5" y2="119.5" class="net_8"/>
  <line x1="230" x2="272.5" y1="267" y2="267" class="net_9"/>
  <line x1="272.5" x2="272.5" y1="267" y2="140" class="net_9"/>
</svg>
